<svg id="Calque_1" data-name="Calque 1" xmlns="http://www.w3.org/2000/svg" viewBox="0 0 198.43 198.43"><defs><style>.cls-1{fill:#6a4436;}.cls-2{fill:#f2c77b;}</style></defs><path class="cls-1" d="M66.93,33.24c3.83-4.16,2.2-8.9-5.49-15.22L45.11,30.45C53.4,38.2,61.41,39.23,66.93,33.24Z"/><path class="cls-1" d="M49.22,149.59C47.74,142,42.58,136.68,34.69,135c-8.7-1.89-14.94,1.81-18.87,9.84L38.49,166C44.58,162.06,50.83,157.79,49.22,149.59Z"/><path class="cls-1" d="M171.65,64c4.51,4,9.31,3,15.27-3.72l-12.85-18C166.07,50.08,165.31,58.33,171.65,64Z"/><path d="M196.48,70c-.34-10.92-4.79-20-12.45-27.52-10.36-10.18-20.9-20.22-31.81-29.83S128.12.42,113.89,2A50.1,50.1,0,0,1,96.12.91a32.42,32.42,0,0,0-16.63.36c-7.65,2.46-14.94,6.38-21.87,10.5-10.23,6.09-19.89,13.1-30,19.33A30.72,30.72,0,0,0,13,51.22,93.28,93.28,0,0,1,5.75,70.78c-3.52,7.06-6.07,14.14-5.5,22C1.18,106,1,119.38,3.47,132.29c3.32,17.64,10.64,33.39,29.86,40.45,6.37,2.34,12.37,5.63,18.58,8.39,2.73,1.21,5.62,2.07,8.35,3.27,5.88,2.58,12,4.79,17.49,8.07,6.18,3.72,12.42,6.14,19.74,5.94,11.47-.31,22.86-1.68,33.24-6.41,10.7-4.88,20.6-11.4,31.18-16.56,10.14-4.94,16.21-12.65,19.6-22.95,1.16-3.51,3.21-6.76,4.93-10.09,2.53-4.89,6.11-9.49,7.46-14.65,2.47-9.42,3.63-19.16,4.69-25.14C197.69,89.19,196.77,79.6,196.48,70Zm-6.74,38.4c-.39,11.16-2.47,22.24-10.65,31.38-2.83,3.14-4,7.83-5.48,12a28.68,28.68,0,0,1-14.53,16.67c-9.44,4.85-18.37,10.68-27.92,15.32a71.84,71.84,0,0,1-35.53,6.83c-4.42-.24-8.82-2.43-13-4.17-7.31-3-14.52-6.3-21.7-9.63C53.4,173.27,46,169.6,38.49,166L15.82,144.8c-4.43-6-6.11-12.37-6.34-19.32C9.17,116,8.93,106.56,8,97.16c-.9-8.82,1.08-16.63,5.28-24.43a70.26,70.26,0,0,0,6.92-18.65C21.9,45.86,25.86,40,33.59,36.44c3.92-1.82,7.67-4,11.52-6L61.44,18C73.15,10.34,84.73,3.63,99.61,9.34a18.39,18.39,0,0,0,8.84.55c17.44-2.6,32.85.4,45.22,13.86,3.64,4,8.53,6.81,12.61,10.42,2.81,2.47,5.22,5.38,7.79,8.07l12.85,18c.6,2.27,1.47,4.18,1.56,6.13C189.07,80.38,190.24,94.41,189.74,108.38Z"/><path class="cls-2" d="M186.92,60.26C181,67,176.16,68,171.65,64c-6.34-5.65-5.58-13.9,2.42-21.74-2.57-2.69-5-5.6-7.79-8.07-4.08-3.61-9-6.46-12.61-10.42C141.3,10.29,125.89,7.29,108.45,9.89a18.39,18.39,0,0,1-8.84-.55c-14.88-5.71-26.46,1-38.17,8.68,7.69,6.32,9.32,11.06,5.49,15.22-5.52,6-13.53,5-21.82-2.79-3.85,2-7.6,4.17-11.52,6C25.86,40,21.9,45.86,20.18,54.08a70.26,70.26,0,0,1-6.92,18.65C9.06,80.53,7.08,88.34,8,97.16c.95,9.4,1.19,18.87,1.5,28.32.23,7,1.91,13.33,6.34,19.32,3.93-8,10.17-11.73,18.87-9.84,7.89,1.72,13.05,7,14.53,14.63,1.61,8.2-4.64,12.47-10.73,16.39,7.52,3.62,14.91,7.29,22.4,10.76,7.18,3.33,14.39,6.61,21.7,9.63,4.22,1.74,8.62,3.93,13,4.17a71.84,71.84,0,0,0,35.53-6.83c9.55-4.64,18.48-10.47,27.92-15.32a28.68,28.68,0,0,0,14.53-16.67c1.47-4.13,2.65-8.82,5.48-12,8.18-9.14,10.26-20.22,10.65-31.38.5-14-.67-28-1.26-42C188.39,64.44,187.52,62.53,186.92,60.26ZM46.63,104c-9.56.1-16.66-7-16.86-16.8C29.55,76.39,36.72,69,47.44,69c10.48,0,19,7.9,18.9,17.62S57.69,103.93,46.63,104Zm73.3-68.14c9.18,0,17.58,7.72,17.48,16.15-.1,7.7-8,15.34-15.58,15.14-7.21-.18-16.39-8.76-16.32-15.26C105.59,43.55,112.44,35.94,119.93,35.9ZM100.15,145.69c-9.22-.18-16.87-8.35-16.62-17.76.24-9.1,6.69-15.12,16.12-15,9.12.09,15.67,7.56,15.39,17.56S109.5,145.87,100.15,145.69Zm21-44.27c-1.42-2.62-1.57-5.9-2.3-8.87.51-7.89,3.28-14.11,10.77-17.73,6.73-3.26,12.74-1.5,18.13,2.82,6.39,5.12,8.58,11.93,7,19.75-1.08,5.34-6.36,9.34-12.17,10.21C134.42,108.82,126.07,110.43,121.2,101.42Zm24.49,46c-5.9.09-10.09-3.49-10.1-8.61,0-6.67,6.18-12.2,13.63-12.18,5.35,0,8.4,2.71,8.52,7.53C157.92,141.17,152.31,147.34,145.69,147.44Z"/><path class="cls-1" d="M47.44,69c-10.72,0-17.89,7.42-17.67,18.27.2,9.82,7.3,16.9,16.86,16.8,11.06-.11,19.65-7.71,19.71-17.45S57.92,69,47.44,69Z"/><path class="cls-1" d="M154.79,97.39c1.59-7.82-.6-14.63-7-19.75-5.39-4.32-11.4-6.08-18.13-2.82-7.49,3.62-10.26,9.84-10.77,17.73.73,3,.88,6.25,2.3,8.87,4.87,9,13.22,7.4,21.42,6.18C148.43,106.73,153.71,102.73,154.79,97.39Z"/><path class="cls-1" d="M99.65,112.91c-9.43-.1-15.88,5.92-16.12,15-.25,9.41,7.4,17.58,16.62,17.76s14.6-5.19,14.89-15.22S108.77,113,99.65,112.91Z"/><path class="cls-1" d="M121.83,67.19c7.62.2,15.48-7.44,15.58-15.14.1-8.43-8.3-16.19-17.48-16.15-7.49,0-14.34,7.65-14.42,16C105.44,58.43,114.62,67,121.83,67.19Z"/><path class="cls-1" d="M149.22,126.65c-7.45,0-13.64,5.51-13.63,12.18,0,5.12,4.2,8.7,10.1,8.61,6.62-.1,12.23-6.27,12.05-13.26C157.62,129.36,154.57,126.66,149.22,126.65Z"/></svg>