<svg id="Calque_1" data-name="Calque 1" xmlns="http://www.w3.org/2000/svg" viewBox="0 0 198.43 198.43"><defs><style>.cls-1{fill:#6a4436;}.cls-2{fill:#f2c77b;}</style></defs><path class="cls-1" d="M111,179.08a21.13,21.13,0,0,0,1.06-11c-.95-6.33-6.42-10.4-13-10.77-8-.45-14.41,3-16.65,8.9-2.64,7,0,14.81,7.43,20.88h14.29C106.32,184.68,109.64,182.3,111,179.08Z"/><path class="cls-1" d="M152.64,155.39c-3.74,4.09-1.2,9.56,6.63,15l15.16-16.22c-5.14-1.38-9.3-3.35-13.46-3.32C158.14,150.9,154.7,153.13,152.64,155.39Z"/><path class="cls-1" d="M104.3,37.43c4.18,5.86,13.15,9.45,19.06,7.61,7.46-2.32,12.9-11,13.34-22.39L109.86,10.79C101.2,18.37,96.71,26.76,104.3,37.43Z"/><path d="M190.88,73.52c-2-3.59-2.46-8-3.72-12.07-1.32-4.21-1.74-9.23-4.33-12.43-8.61-10.64-17.69-21-30.45-27-7-3.29-14.2-6.28-20.76-10.31C119.86,4.5,107.13,1.56,93.29,0,86.7,1.77,79.94,3.1,73.56,5.46c-6,2.21-11.42,5.91-17.36,8.26C39.69,20.25,26.93,31.38,17,45.84,6.69,60.77.21,77.1,2.27,95.71c.85,7.67,1.17,15.14-.82,22.66A28,28,0,0,0,3,136.84c4.5,10.62,10,20.75,18.49,28.54,9.06,8.35,19.26,15.43,28.58,23.51s20,10.62,31.31,7.88a63,63,0,0,1,34,.62c9.17,2.75,16.9-.21,24.22-6.1a76.37,76.37,0,0,1,17-10.68c11.5-5,19.9-12.78,24.69-24.35,4.24-10.24,7.61-20.88,12.29-30.9C201.9,107.42,200.29,90.45,190.88,73.52Zm-.38,36.57c-4.82,15.26-10.9,30.11-16.07,44.12l-15.16,16.22c-1.73.94-3.3,1.72-4.79,2.63-6.57,4-13.58,7.42-19.54,12.2-6.3,5.05-12.58,6.57-20.13,4.32-3.76-1.12-7.65-1.81-10.65-2.51H89.87c-13.68,4.3-26,4.63-37.21-5.8-7.81-7.26-17.51-12.6-24.73-20.34-6.85-7.35-12.13-16.41-17-25.34-2.18-4-2.15-9.52-2.21-14.36-.11-10.91-.24-21.87.68-32.71C12,58.23,28.09,37,54.2,22.87c5-2.73,10.42-4.89,15.56-7.46,14.8-7.4,23-8.42,40.1-4.62L136.7,22.65c7,3.67,14.16,6.32,20,10.78a136.68,136.68,0,0,1,19.41,18.93c2.38,2.74,2.84,7.23,4,11,1.5,4.8,2.16,10,4.36,14.4C189.56,88,194.13,98.62,190.5,110.09Z"/><path class="cls-2" d="M180.08,63.33c-1.16-3.74-1.62-8.23-4-11a136.68,136.68,0,0,0-19.41-18.93c-5.81-4.46-13-7.11-20-10.78C136.26,34,130.82,42.72,123.36,45c-5.91,1.84-14.88-1.75-19.06-7.61-7.59-10.67-3.1-19.06,5.56-26.64C92.77,7,84.56,8,69.76,15.41,64.62,18,59.25,20.14,54.2,22.87,28.09,37,12,58.23,9.42,88.53c-.92,10.84-.79,21.8-.68,32.71.06,4.84,0,10.35,2.21,14.36,4.85,8.93,10.13,18,17,25.34,7.22,7.74,16.92,13.08,24.73,20.34,11.21,10.43,23.53,10.1,37.21,5.8-7.4-6.07-10.07-13.92-7.43-20.88,2.24-5.92,8.64-9.35,16.65-8.9,6.59.37,12.06,4.44,13,10.77a21.13,21.13,0,0,1-1.06,11c-1.4,3.22-4.72,5.6-6.88,8,3,.7,6.89,1.39,10.65,2.51,7.55,2.25,13.83.73,20.13-4.32,6-4.78,13-8.21,19.54-12.2,1.49-.91,3.06-1.69,4.79-2.63-7.83-5.48-10.37-11-6.63-15,2.06-2.26,5.5-4.49,8.33-4.5,4.16,0,8.32,1.94,13.46,3.32,5.17-14,11.25-28.86,16.07-44.12,3.63-11.47-.94-22-6.06-32.36C182.24,73.31,181.58,68.13,180.08,63.33ZM28.82,97c-5.15.06-8.74-4.49-8.75-11.09s4.77-12.65,10.06-12.63c4.76,0,9.36,6,9.3,12.2S34.62,97,28.82,97ZM57,151.89c-10.26-.14-19.71-9.11-19.5-18.51.22-9.88,9.12-18.21,19.26-18a17.46,17.46,0,0,1,16.86,17.29C73.53,141.88,64.8,152,57,151.89Zm25.54-79c-7.42,0-13-7.11-12.91-16.42.07-8.29,6.88-14,16.52-13.79,8.52.17,14.53,6.3,14.54,14.85C100.67,67.53,94.24,73,82.5,72.89Zm42,73.88c-10.52-.06-19.28-8.08-19-17.45.19-7.86,7.58-14.82,15.66-14.74,9.29.09,18.06,9.12,17.89,18.4C138.92,139.46,131.2,146.81,124.54,146.77ZM123.1,96c-8.17.07-17.59-10.5-17.51-19.68.07-9.86,7.34-16.74,17.64-16.7,10.09,0,18.91,7.75,18.87,16.49C142.06,85.16,131.73,96,123.1,96Zm37.58,20.5c-4.75-.06-8.66-4.82-8.83-10.73-.19-6.53,4.91-13.09,10.19-13.12,4.73,0,9.42,5.93,9.46,12C171.54,111,166.41,116.62,160.68,116.54Z"/><path class="cls-1" d="M123.23,59.66c-10.3,0-17.57,6.84-17.64,16.7-.08,9.18,9.34,19.75,17.51,19.68,8.63-.07,19-10.88,19-19.89C142.14,67.41,133.32,59.7,123.23,59.66Z"/><path class="cls-1" d="M56.72,115.35c-10.14-.18-19,8.15-19.26,18-.21,9.4,9.24,18.37,19.5,18.51,7.84.1,16.57-10,16.62-19.25A17.46,17.46,0,0,0,56.72,115.35Z"/><path class="cls-1" d="M121.16,114.58c-8.08-.08-15.47,6.88-15.66,14.74-.24,9.37,8.52,17.39,19,17.45,6.66,0,14.38-7.31,14.51-13.79C139.22,123.7,130.45,114.67,121.16,114.58Z"/><path class="cls-1" d="M86.11,42.68c-9.64-.19-16.45,5.5-16.52,13.79-.07,9.31,5.49,16.38,12.91,16.42,11.74.07,18.17-5.36,18.15-15.36C100.64,49,94.63,42.85,86.11,42.68Z"/><path class="cls-1" d="M162,92.69c-5.28,0-10.38,6.59-10.19,13.12.17,5.91,4.08,10.67,8.83,10.73,5.73.08,10.86-5.53,10.82-11.83C171.46,98.62,166.77,92.66,162,92.69Z"/><path class="cls-1" d="M30.13,73.31c-5.29,0-10.08,6-10.06,12.63S23.67,97.09,28.82,97c5.8-.07,10.55-5.23,10.61-11.52S34.89,73.32,30.13,73.31Z"/></svg>