<svg id="Calque_1" data-name="Calque 1" xmlns="http://www.w3.org/2000/svg" viewBox="0 0 198.43 198.43"><defs><style>.cls-1{fill:#6a4436;}.cls-2{fill:#f2c77b;}</style></defs><path class="cls-1" d="M174.16,112.52a12,12,0,0,0-5.31,14.58c2,6.15,5.52,8.47,12.78,8l5.61-18.58C181.84,110.74,178.66,109.78,174.16,112.52Z"/><path d="M194,75.18c-3.85-10-7.28-20.18-10.23-30.47-1.71-6-4.37-10.86-9.29-14.67C165.63,23.2,157,16.21,148.28,9.19,140.57,3,132-.53,121.94.07c-6.06.35-12.13.6-18.19.89,0-.13-8.54-.47-12.8-.4-15,.25-29.77,2-41.45,12.66C38.09,23.63,27.2,34.64,16.33,45.63c-5.66,5.72-9.08,12.86-7.91,21.08C9.47,74.06,7.62,80.29,4,86.48c-5.95,10.21-5.2,20.24.56,30.53a71.87,71.87,0,0,1,6.56,17.4c2,7.81,4.44,15.24,10.15,21.11,9.19,9.43,17.8,19.6,27.89,27.94,15.81,13.08,33.31,19.95,54.18,10.73,10.25-4.53,21.33-7.21,32.11-10.46,3.42-1,7.26-.74,10.62-1.89,5.48-1.87,11.16-3.75,15.94-6.89,4.29-2.81,7.67-7.17,11.13-11.12,11.62-13.25,17-29.48,22-46C199.66,103.23,199.41,89.33,194,75.18Zm-6.71,41.34-5.61,18.58c-6.3,14.91-14.91,27.69-28.2,36.68-2.68,1.82-6.47,2.07-9.79,2.79-3,.66-6.26.61-9.2,1.51-11.09,3.38-22.47,6.15-33,10.76-19.54,8.51-35.18,1.62-49.48-11.1-8.1-7.19-15.25-15.46-23-23-5.93-5.79-8.84-12.91-10.56-20.83-.68-3.14-2.24-6.1-3.57-9.06-1.75-3.9-3.86-7.65-5.48-11.6C6.2,103.72,6.53,96.3,10.84,89.36c4.45-7.16,5.92-14.65,5.21-23.15-.35-4.18,1.71-9,3.85-12.84,1.93-3.49,5.38-6.16,8.3-9,6.31-6.24,13.17-12,19-18.66C56.92,14.48,69.06,9,83.47,8.39c13.27-.59,26.56-.79,39.85-1a29.16,29.16,0,0,1,19.13,6.72C151.67,21.46,161,28.75,170,36.31a17.14,17.14,0,0,1,5.22,7c4.69,13.37,8.83,26.93,13.46,40.32C192.58,94.84,191.42,105.68,187.24,116.52Z"/><path class="cls-2" d="M175.24,43.29a17.14,17.14,0,0,0-5.22-7c-9.06-7.56-18.35-14.85-27.57-22.22a29.16,29.16,0,0,0-19.13-6.72c-13.29.23-26.58.43-39.85,1C69.06,9,56.92,14.48,47.19,25.66c-5.82,6.67-12.68,12.42-19,18.66-2.92,2.89-6.37,5.56-8.3,9-2.14,3.86-4.2,8.66-3.85,12.84.71,8.5-.76,16-5.21,23.15C6.53,96.3,6.2,103.72,9.29,111.21c1.62,4,3.73,7.7,5.48,11.6,1.33,3,2.89,5.92,3.57,9.06,1.72,7.92,4.63,15,10.56,20.83,7.77,7.58,14.92,15.85,23,23,14.3,12.72,29.94,19.61,49.48,11.1,10.57-4.61,21.95-7.38,33-10.76,2.94-.9,6.16-.85,9.2-1.51,3.32-.72,7.11-1,9.79-2.79,13.29-9,21.9-21.77,28.2-36.68-7.26.47-10.79-1.85-12.78-8a12,12,0,0,1,5.31-14.58c4.5-2.74,7.68-1.78,13.08,4,4.18-10.84,5.34-21.68,1.46-32.91C184.07,70.22,179.93,56.66,175.24,43.29ZM27.85,93.59c-4.69-.16-7.53-3.83-7.49-9.69.05-7.15,5.12-12.49,11.8-12.42,5.6.06,8.85,3.35,8.79,8.9C40.86,87.65,34.73,93.82,27.85,93.59Zm77.78-22.28c6.06.1,11.66,6.43,11.6,13.11,0,5.94-2.88,9.3-7.85,9.31-6.78,0-12.78-5.93-12.67-12.54C96.8,75.65,100.79,71.23,105.63,71.31ZM71.41,28.06c9.29.25,17.6,9.43,17.48,19.32-.11,9.11-8,17.07-17.07,17.13-9.26.06-19.62-9.41-19.38-17.73C52.71,37.37,62.39,27.81,71.41,28.06Zm-26.59,94.7c-.26-9.7,8-18.71,17.36-18.82A15.34,15.34,0,0,1,77.31,119c0,9.54-8.84,18.21-18.57,18.18C52.65,137.21,45,129.24,44.82,122.76ZM83,172.63c-6.46.08-12-5.2-11.86-11.37.09-5,4.15-8.4,10.17-8.43,7.1,0,13.08,5,13,10.87C94.19,168.33,88.85,172.56,83,172.63Zm48-43.16c-.81,5.82-3.56,10.75-8.55,13.88a17.53,17.53,0,0,1-8.19,2.75c-8.48.34-19.12-10.53-19.2-19.09,0-7.75,5.09-11.85,11-15.1,6.45-3.54,13-3.31,19,1.23C130.4,117.24,131.87,123,131,129.47Zm-3.89-90.56c-6.31,0-12.39-5.92-12.5-12.21-.1-5.71,3.86-10.58,8.68-10.69,5.79-.13,11.65,6.4,11.65,13C134.92,35.08,131.91,38.9,127.09,38.91Zm32.51,63c-9.74.56-15.08-4.85-15.61-15.81-1.36-10.8,6.6-14.74,14.46-15.39,8.43-.7,14.59,5.48,15,14.68S168.26,101.38,159.6,101.88Z"/><path class="cls-1" d="M71.82,64.51c9-.06,17-8,17.07-17.13C89,37.49,80.7,28.31,71.41,28.06c-9-.25-18.7,9.31-19,18.72C52.2,55.1,62.56,64.57,71.82,64.51Z"/><path class="cls-1" d="M125,113.14c-6-4.54-12.51-4.77-19-1.23-5.9,3.25-11,7.35-11,15.1.08,8.56,10.72,19.43,19.2,19.09a17.53,17.53,0,0,0,8.19-2.75c5-3.13,7.74-8.06,8.55-13.88C131.87,123,130.4,117.24,125,113.14Z"/><path class="cls-1" d="M77.31,119a15.34,15.34,0,0,0-15.13-15.1c-9.31.11-17.62,9.12-17.36,18.82.17,6.48,7.83,14.45,13.92,14.46C68.47,137.25,77.31,128.58,77.31,119Z"/><path class="cls-1" d="M158.45,70.68c-7.86.65-15.82,4.59-14.46,15.39.53,11,5.87,16.37,15.61,15.81,8.66-.5,14.27-7.19,13.85-16.52S166.88,70,158.45,70.68Z"/><path class="cls-1" d="M123.27,16c-4.82.11-8.78,5-8.68,10.69.11,6.29,6.19,12.24,12.5,12.21,4.82,0,7.83-3.83,7.83-9.94C134.92,22.41,129.06,15.88,123.27,16Z"/><path class="cls-1" d="M81.31,152.83c-6,0-10.08,3.4-10.17,8.43-.1,6.17,5.4,11.45,11.86,11.37,5.85-.07,11.19-4.3,11.28-8.93C94.39,157.81,88.41,152.79,81.31,152.83Z"/><path class="cls-1" d="M32.16,71.48c-6.68-.07-11.75,5.27-11.8,12.42,0,5.86,2.8,9.53,7.49,9.69,6.88.23,13-5.94,13.1-13.21C41,74.83,37.76,71.54,32.16,71.48Z"/><path class="cls-1" d="M109.38,93.73c5,0,7.8-3.37,7.85-9.31.06-6.68-5.54-13-11.6-13.11-4.84-.08-8.83,4.34-8.92,9.88C96.6,87.8,102.6,93.74,109.38,93.73Z"/></svg>