<?xml version="1.0" encoding="utf-8"?>
<!-- Generator: Adobe Illustrator 25.0.0, SVG Export Plug-In . SVG Version: 6.00 Build 0)  -->
<svg version="1.1" id="Calque_1" xmlns="http://www.w3.org/2000/svg" xmlns:xlink="http://www.w3.org/1999/xlink" x="0px" y="0px"
	 viewBox="0 0 198.4 198.4" style="enable-background:new 0 0 198.4 198.4;" xml:space="preserve">
<style type="text/css">
	.st0{fill:#6A4436;}
	.st1{fill:#F2C77B;}
</style>
<g>
	<path class="st0" d="M157.9,140.3c-4.8,0.2-7.8,2.7-8.2,7.1c-0.8,7.9,4.5,13.3,15,15.4l7.5-6.6C170.6,144.8,165.8,140,157.9,140.3z
		"/>
	<path class="st0" d="M135.9,33.2c1.1,2.1,4.3,4.3,6.5,4.3c6.7,0,10.4-4.6,12.2-10.6l-15.3-10.7C134.1,21.1,132.5,27,135.9,33.2z"/>
	<path class="st0" d="M84.8,34.3c7,5.3,16.2,5.3,20.7,0.1c8.5-9.9,8-17.1-1.8-25.8L86.4,9C77.8,21.3,77.4,28.7,84.8,34.3z"/>
	<path class="st0" d="M86.7,179c2-4,1.8-9.8,0.7-14.4c-2-8.3-9.9-13.9-18.4-13.1c-11,1.2-15.8,7.8-16.8,22.6L76,188.3
		C79.6,185.3,84.8,183,86.7,179z"/>
	<path d="M198.4,87.3c-0.3,0-0.7-6.3-0.9-9.5c-1.2-15.8-5.4-31-17.4-41.9c-11-10.1-23.2-18.8-36.2-26C122.7-1.6,99.4-2.2,76.2,3.5
		C55,8.6,36.6,18.3,24.6,37.3c-0.5,0.8-1.6,1.2-2.3,1.9c-3.2,3.5-7.3,6.6-9.5,10.7c-9,16.5-14.5,33.9-12.4,53
		c1.5,12.8,1.3,26,8.7,37.5c5.7,8.8,11.2,17.8,17.1,26.4c1.9,2.6,4.2,4.7,6.9,6.4c9.7,6,19.6,11.6,29.4,17.4
		c9.3,5.5,19.4,8.6,30.3,7.8c11.2-0.8,22.4-3,33.6-3.6c20.6-1.1,35-11.2,45.3-28.2c1.6-2.7,4.7-4.6,7-6.9c3.6-3.6,8.7-6.7,10.5-11
		c4.7-11.3,9.2-22.8,9.1-35.4C198.4,104.6,198.4,96,198.4,87.3z M182.8,144.1c-1.7,4.3-6.4,7.4-10.6,12l-7.5,6.6
		c-8.2,14.6-20.3,22.9-37.4,24.2c-9.2,0.7-18.3,2.3-27.5,3.5c-8,1.2-16.1,0.5-23.7-2.1l-23.8-14.1c-14.1-3.8-21.6-14.6-29.2-26
		C1.8,116.7,3.3,84.7,20.2,52.4c1.6-3.1,5.8-4.9,8.8-7.4c0.9-0.6,1.8-1.2,2.5-2c3.3-4.6,5.8-10,9.9-13.8C53.9,17.5,69.5,12,86.4,9
		l17.3-0.3c7.6-1.8,26.6,2.2,35.7,7.6L154.6,27c20.5,8.3,35.9,32.3,35.3,54.2c-0.2,9.3,0,18.6,0.6,27.8
		C191.5,121.5,187.2,132.9,182.8,144.1z"/>
	<path class="st1" d="M190,81.2c0.6-21.9-14.9-45.9-35.3-54.2c-1.9,6-5.5,10.6-12.2,10.6c-2.2,0-5.4-2.3-6.5-4.3
		c-3.4-6.3-1.8-12.1,3.5-17c-9.1-5.4-28.1-9.4-35.7-7.6c9.8,8.7,10.3,15.8,1.8,25.8c-4.5,5.2-13.6,5.2-20.7-0.1
		c-7.5-5.6-7.1-13,1.6-25.4c-16.9,3-32.5,8.5-45,20.2c-4.1,3.8-6.6,9.2-9.9,13.8c-0.8,0.8-1.6,1.5-2.6,2c-3,2.4-7.2,4.2-8.9,7.3
		C3.3,84.7,1.8,116.7,23,148.3c7.6,11.4,15.1,22.2,29.2,26c1-14.9,5.8-21.4,16.8-22.6c8.5-0.9,16.4,4.7,18.4,13.1
		c1.1,4.6,1.3,10.4-0.7,14.4s-7.1,6.3-10.8,9.3c7.6,2.6,15.8,3.3,23.8,2.1c9.2-1.2,18.3-2.8,27.5-3.5c17.1-1.3,29.2-9.6,37.4-24.2
		c-10.4-2-15.7-7.5-15-15.4c0.4-4.4,3.4-7,8.2-7.1c7.9-0.3,12.7,4.5,14.3,15.9c4.2-4.6,8.9-7.7,10.6-12c4.4-11.2,8.7-22.6,7.8-35.1
		C190,99.8,189.7,90.4,190,81.2z M30.3,115.3c-8.8,0.2-16.9-6.7-17.1-14.3c-0.1-8.7,7.8-17.4,16-17.6s16,7.4,16,15
		C45.2,106.4,37.4,115.2,30.3,115.3z M84.3,78.3c-3.4,2.3-8,2.9-12,4.3c-8.1-1.1-14.3-4-17.8-11.3c-3.2-6.9-1.3-13,3.5-18.3
		c5.2-5.8,11.8-8.6,19.8-6.5c6,1.6,8.9,6,10.3,11.7C90,65.5,91.9,73.1,84.3,78.3L84.3,78.3z M106.1,141.5c-9.5,0-15.9-6.3-16-15.5
		c0-8.8,7.9-15.9,17.8-15.8c10.7,0.1,16,5,16,14.9C124,134,115.9,141.5,106.1,141.5L106.1,141.5z M117.8,79.5
		c-6.7,0.2-13.3-6.4-13.4-13.5c-0.1-5,3.3-8.4,8.4-8.4c7.4,0,13.3,5.3,13.4,12C126.3,75.2,122.8,79.3,117.8,79.5L117.8,79.5z
		 M152.6,95.1c-10.2-0.4-17.8-7.8-17.7-17.8c0.1-10.3,8.4-18.7,18.4-18.5c10.2,0.2,17.9,8.8,17.8,20.2
		C172.8,87,162.1,95.4,152.6,95.1L152.6,95.1z"/>
	<path class="st0" d="M77.9,46.5c-8-2.1-14.6,0.7-19.8,6.5c-4.8,5.3-6.7,11.4-3.5,18.3c3.5,7.3,9.6,10.2,17.8,11.2
		c4-1.4,8.6-2,12-4.3c7.6-5.2,5.7-12.8,3.9-20.1C86.8,52.5,83.9,48.1,77.9,46.5z"/>
	<path class="st0" d="M153.4,58.8c-10-0.2-18.4,8.2-18.5,18.5c-0.1,10,7.5,17.4,17.7,17.8c9.5,0.3,20.2-8,18.6-16.1
		C171.2,67.6,163.6,59,153.4,58.8z"/>
	<path class="st0" d="M108,110.1c-9.9-0.1-17.9,7-17.8,15.8c0.1,9.3,6.5,15.5,16,15.5c9.8,0,17.9-7.4,17.9-16.4
		C124,115.1,118.7,110.2,108,110.1z"/>
	<path class="st0" d="M29.2,83.5c-8.2,0.1-16.1,8.8-16,17.5c0.1,7.6,8.3,14.4,17.1,14.3c7.1-0.1,14.9-9,14.9-16.9
		C45.2,90.9,37.3,83.4,29.2,83.5z"/>
	<path class="st0" d="M112.8,57.6c-5.2,0-8.5,3.3-8.4,8.4c0.1,7.1,6.7,13.7,13.4,13.5c5-0.2,8.5-4.2,8.4-9.8
		C126.1,62.8,120.2,57.5,112.8,57.6z"/>
</g>
</svg>
